M48
;GenerationSoftware,Autodesk,EAGLE,9.4.2*%
;CreationDate,2021-07-02T07:01:34Z*%
FMAT,2
ICI,OFF
METRIC,TZ,000.000
T3C0.700
T2C0.900
T1C2.600
%
G90
M71
T1
X14300Y27515
X14300Y34715
T2
X7000Y3700
X7000Y6200
X7000Y8700
X7000Y11200
X7000Y13700
X7000Y16200
X7000Y18700
T3
X25130Y6350
X23130Y6350
X34020Y6350
X32020Y6350
X42910Y6350
X40910Y6350
X40910Y33655
X42910Y33655
X32020Y33655
X34020Y33655
X23130Y33655
X25130Y33655
M30